<?xml version="1.0" standalone="no"?>
<!DOCTYPE svg PUBLIC "-//W3C//DTD SVG 20010904//EN"
 "http://www.w3.org/TR/2001/REC-SVG-20010904/DTD/svg10.dtd">
<svg version="1.0" xmlns="http://www.w3.org/2000/svg"
 width="700.000000pt" height="700.000000pt" viewBox="0 0 700.000000 700.000000"
 preserveAspectRatio="xMidYMid meet">
<metadata>
Created by potrace 1.11, written by Peter Selinger 2001-2013
</metadata>
<g transform="translate(0.000000,700.000000) scale(0.100000,-0.100000)"
fill="#000000" stroke="none">
<path d="M3115 6299 c-738 -66 -1387 -285 -1940 -655 -756 -505 -1192 -1271
-1151 -2022 32 -584 292 -1106 771 -1552 988 -920 2680 -1226 4120 -745 1594
532 2418 1873 1920 3125 -176 443 -523 860 -975 1172 -262 181 -598 349 -915
458 -310 107 -716 190 -1068 219 -146 12 -627 12 -762 0z m614 -49 c789 -42
1499 -268 2079 -663 584 -397 952 -913 1078 -1512 26 -120 28 -148 28 -360 0
-179 -3 -251 -17 -325 -34 -182 -98 -390 -119 -390 -6 0 -192 58 -412 129
-221 71 -411 132 -423 136 -21 6 -22 4 -12 -23 10 -29 25 -35 412 -167 221
-75 405 -139 409 -141 10 -6 -13 -54 -25 -54 -5 0 -178 61 -384 136 -206 75
-376 134 -379 131 -3 -3 17 -81 44 -173 l49 -168 41 -14 c39 -13 89 -54 117
-97 16 -23 55 -172 55 -207 0 -44 -21 -99 -52 -134 -59 -67 -389 -209 -714
-308 -402 -122 -786 -198 -1162 -231 -287 -25 -353 -20 -418 37 -102 90 -127
305 -44 393 19 20 17 33 -126 894 -79 481 -144 875 -144 876 0 2 -31 13 -70
24 -78 24 -117 20 -130 -13 -5 -11 -104 -416 -220 -900 -191 -795 -210 -880
-196 -895 21 -24 46 -97 46 -137 0 -55 -48 -191 -81 -228 -64 -73 -146 -83
-394 -46 -601 89 -1286 317 -1765 587 -88 50 -110 67 -135 108 -38 61 -40 130
-6 233 31 96 83 155 155 178 l53 17 35 96 c20 53 35 97 34 98 -1 1 -149 -52
-330 -118 -180 -65 -334 -119 -340 -119 -7 0 -18 11 -24 24 -13 30 -50 14 393
165 288 97 321 111 333 135 8 15 12 29 10 31 -1 2 -100 -28 -218 -66 -118 -38
-291 -94 -383 -123 l-168 -54 -11 26 c-6 15 -23 72 -39 127 -126 428 -98 884
77 1303 403 962 1546 1664 2884 1772 252 20 372 22 609 10z m-252 -2272 c-3
-8 -6 -5 -6 6 -1 11 2 17 5 13 3 -3 4 -12 1 -19z m13 -70 c0 -5 -4 -8 -10 -8
-5 0 -10 10 -10 23 0 18 2 19 10 7 5 -8 10 -18 10 -22z m0 -68 c0 -20 -5 -30
-15 -30 -10 0 -15 10 -15 30 0 20 5 30 15 30 10 0 15 -10 15 -30z m10 -85 c0
-20 -5 -25 -24 -25 -19 0 -22 4 -18 25 3 16 11 25 23 25 14 0 19 -7 19 -25z
m4 -87 c10 -41 7 -48 -24 -48 -28 0 -30 3 -30 35 0 30 3 35 24 35 16 0 26 -7
30 -22z m6 -107 c0 -11 3 -26 6 -35 5 -13 -2 -16 -35 -16 -40 0 -41 1 -41 35
0 33 2 35 35 35 28 0 35 -4 35 -19z m12 -146 c2 -20 2 -38 -1 -40 -2 -3 -24
-5 -48 -5 l-43 0 0 40 0 40 44 0 c43 0 44 -1 48 -35z m12 -146 c15 -76 13 -79
-60 -79 -56 0 -65 2 -60 16 3 9 6 33 6 55 l0 39 54 0 c52 0 54 -1 60 -31z m16
-213 c0 -13 3 -44 6 -70 l7 -46 -84 0 -84 0 3 70 4 70 74 0 c71 0 74 -1 74
-24z m24 -313 c3 -21 6 -64 6 -95 l0 -58 -106 0 -107 0 6 68 c4 37 7 79 7 95
l0 27 94 0 93 0 7 -37z m30 -405 c3 -24 8 -91 12 -150 l7 -108 -148 0 -147 0
6 63 c3 34 8 101 12 150 l6 87 123 0 123 0 6 -42z m51 -670 c9 -96 35 -449 35
-480 l0 -28 -215 0 c-118 0 -215 3 -215 8 0 4 9 120 20 257 11 138 20 262 20
278 l0 27 174 0 174 0 7 -62z"/>
<path d="M1953 5950 c-123 -18 -222 -119 -288 -293 -33 -89 -32 -118 12 -249
33 -102 35 -114 24 -152 -25 -87 -35 -174 -25 -229 6 -31 6 -65 1 -80 -6 -20
-3 -34 19 -66 36 -55 40 -108 15 -218 -29 -134 -77 -217 -141 -243 -25 -10
-34 -10 -55 4 -24 16 -26 16 -34 -6 -76 -202 -201 -546 -201 -554 0 -6 10 -19
21 -30 19 -17 21 -27 16 -89 -5 -86 -48 -197 -84 -220 -13 -9 -40 -19 -59 -22
-30 -5 -36 -11 -52 -57 -11 -28 -63 -169 -117 -313 l-97 -263 -35 0 c-73 0
-119 -44 -154 -147 -27 -81 -23 -152 10 -187 83 -88 572 -314 941 -434 375
-123 814 -220 1076 -239 126 -9 171 21 209 137 28 84 24 132 -14 187 l-32 45
256 1067 c141 586 259 1074 261 1084 4 13 16 17 60 17 51 0 54 1 54 25 0 21 5
25 30 25 22 0 31 -5 35 -22 3 -13 86 -509 184 -1102 l179 -1080 -34 -40 c-45
-52 -51 -92 -29 -185 21 -88 56 -132 120 -150 72 -20 445 13 743 65 390 68
845 197 1132 321 283 123 306 142 297 253 -11 135 -54 202 -141 224 l-49 13
-91 313 -91 313 -45 17 c-58 22 -85 62 -106 157 -20 91 -15 155 16 188 l23 24
-84 291 c-62 215 -87 289 -97 285 -54 -20 -63 -18 -107 29 -61 64 -89 154 -90
292 0 95 2 103 28 137 22 29 29 51 34 109 10 109 8 207 -6 265 -12 51 -12 53
29 144 66 147 65 213 -6 365 -105 224 -291 276 -514 144 -30 -18 -65 -41 -79
-51 -23 -19 -24 -19 -73 17 -167 123 -398 105 -558 -43 -31 -29 -68 -73 -81
-98 -13 -25 -28 -45 -34 -45 -5 1 -30 5 -55 10 -63 12 -183 -6 -244 -37 -68
-35 -161 -125 -191 -187 -30 -62 -40 -130 -27 -179 8 -29 8 -37 -3 -37 -9 0
-14 21 -17 68 -5 88 -36 151 -113 228 -65 66 -113 94 -187 112 -52 13 -154 18
-184 8 -15 -5 -22 3 -37 38 -28 68 -82 131 -156 180 -79 54 -155 76 -263 76
-88 0 -152 -18 -216 -61 -24 -16 -45 -29 -48 -29 -3 0 -26 17 -50 39 -51 45
-164 106 -214 116 -19 3 -42 8 -50 9 -8 2 -38 0 -67 -4z m172 -110 c33 -16 90
-54 127 -85 36 -30 74 -55 83 -55 9 0 34 14 55 30 47 37 111 66 168 75 49 8
161 -10 207 -33 97 -48 169 -129 196 -220 18 -63 29 -68 99 -47 52 16 67 16
122 5 87 -17 115 -30 175 -84 87 -79 122 -178 92 -265 -6 -17 -17 -31 -24 -31
-26 0 -111 -89 -139 -146 -77 -156 -48 -362 64 -456 l35 -30 -43 22 c-24 12
-63 39 -87 61 l-44 40 -61 -12 c-86 -17 -294 -7 -396 20 -143 37 -323 115
-450 196 l-51 33 -69 -24 c-146 -50 -249 -26 -364 85 -51 49 -59 62 -66 106
-7 51 5 156 28 233 12 41 10 50 -26 153 -47 134 -46 166 13 284 44 90 104 153
163 173 49 16 125 5 193 -28z m3093 -47 c89 -41 182 -226 170 -336 -3 -23 -24
-84 -48 -136 l-42 -93 17 -84 c21 -96 17 -180 -11 -237 -32 -68 -188 -157
-274 -157 -40 0 -148 31 -190 54 -22 13 -31 11 -103 -26 -120 -60 -235 -104
-354 -135 -96 -25 -126 -28 -268 -28 -125 0 -172 4 -217 18 l-57 17 -48 -36
c-70 -54 -128 -77 -209 -82 -61 -4 -80 -1 -126 21 -96 43 -145 140 -136 265
11 146 91 246 213 267 123 21 134 31 110 101 -30 88 -14 151 57 229 68 74 118
102 210 116 66 11 82 10 124 -5 82 -29 85 -28 121 44 66 129 175 205 313 216
101 9 172 -12 243 -69 74 -61 86 -62 149 -15 141 106 257 136 356 91z m-3350
-1012 c10 -6 -63 -210 -327 -905 -236 -620 -341 -909 -341 -936 0 -57 35 -92
124 -125 85 -31 120 -28 159 13 17 19 134 314 388 985 200 526 366 957 369
957 38 -1 30 -24 -331 -976 -324 -854 -367 -963 -399 -996 -49 -50 -93 -57
-180 -29 -119 38 -173 92 -173 175 -1 30 88 273 343 944 189 496 346 902 349
902 3 0 12 -4 19 -9z m3239 -1002 c156 -519 288 -962 294 -983 6 -22 23 -52
39 -68 24 -23 37 -28 77 -27 74 1 163 37 190 78 13 19 23 43 23 55 0 12 -124
435 -275 940 -152 506 -274 925 -271 933 3 7 11 13 18 13 15 0 568 -1836 568
-1883 0 -39 -27 -93 -58 -117 -38 -30 -178 -72 -217 -64 -50 9 -92 39 -113 81
-31 62 -595 1960 -588 1978 3 9 11 15 18 13 7 -3 139 -429 295 -949z m-2691
893 c7 -5 -90 -325 -297 -977 -170 -533 -309 -987 -309 -1007 0 -53 37 -92
112 -117 87 -29 130 -28 168 7 27 24 59 118 337 996 180 568 313 970 321 973
7 3 17 2 21 -3 10 -11 -599 -1932 -623 -1969 -43 -66 -124 -81 -237 -44 -78
26 -123 67 -138 124 -9 36 -7 54 13 121 42 139 598 1889 603 1897 5 9 15 9 29
-1z m2487 -1020 c131 -548 238 -1013 238 -1032 -1 -44 -32 -95 -72 -119 -17
-10 -68 -27 -114 -36 l-84 -18 -48 24 c-37 18 -53 35 -70 69 -13 26 -120 452
-255 1018 -235 987 -236 991 -198 992 3 0 110 -440 239 -977 128 -538 239
-992 246 -1010 21 -51 55 -67 131 -60 116 11 184 59 184 129 0 13 -107 468
-238 1013 -158 655 -234 992 -228 997 6 4 16 8 21 8 6 0 117 -449 248 -998z
m-605 -115 c101 -545 183 -1008 182 -1027 0 -42 -29 -92 -66 -116 -31 -21
-131 -43 -190 -44 -45 0 -94 28 -126 71 -15 20 -64 264 -207 1035 -103 555
-185 1012 -182 1016 29 33 34 10 222 -1001 179 -966 189 -1015 215 -1042 36
-37 70 -43 157 -28 88 15 137 55 137 110 0 29 -353 1957 -366 2002 -4 13 0 17
18 17 23 0 26 -14 206 -993z m-1331 970 c-21 -56 -507 -1951 -507 -1979 0 -54
36 -92 108 -112 113 -31 170 -18 201 48 11 23 133 479 272 1014 244 939 265
1010 284 959 4 -9 -478 -1887 -510 -1988 -10 -29 -67 -79 -103 -89 -46 -13
-179 13 -225 44 -43 29 -70 80 -70 130 1 31 485 1914 508 1974 2 6 14 12 26
12 13 0 19 -5 16 -13z m-1979 -1789 c485 -280 1152 -497 1708 -554 184 -19
182 -18 191 -40 11 -28 -22 -43 -85 -37 -383 33 -812 131 -1197 275 -233 86
-407 167 -652 301 -106 58 -133 83 -118 107 13 21 49 8 153 -52z m5080 -80
c24 -24 10 -39 -86 -87 -320 -161 -734 -297 -1137 -375 -297 -57 -788 -103
-849 -80 -9 3 -16 17 -16 30 0 30 6 32 215 38 558 18 1230 187 1750 440 100
49 106 51 123 34z"/>
<path d="M1055 5218 c-135 -48 -255 -211 -380 -516 -143 -350 -158 -662 -39
-834 54 -77 454 -303 525 -296 29 3 37 10 57 49 12 25 28 70 34 101 15 69 6
82 -62 97 -56 12 -167 64 -231 108 -146 101 -217 259 -190 423 27 167 140 421
224 504 55 55 109 86 149 86 45 0 127 -50 185 -115 57 -61 143 -196 158 -245
10 -33 53 -100 64 -100 25 0 75 94 96 182 20 84 19 147 -3 179 -93 142 -190
250 -277 309 -106 73 -224 98 -310 68z"/>
<path d="M5811 5091 c-68 -26 -139 -72 -218 -141 -76 -67 -191 -204 -200 -238
-9 -36 15 -190 39 -244 11 -25 28 -54 38 -63 17 -16 20 -15 37 5 10 12 24 28
31 35 6 8 12 19 12 26 0 6 24 48 54 93 101 151 230 256 316 256 39 0 117 -56
162 -115 66 -87 141 -293 169 -463 31 -186 -57 -357 -232 -454 -82 -45 -200
-88 -245 -88 -51 0 -61 -29 -41 -117 32 -143 43 -149 168 -108 122 41 393 179
436 223 70 72 122 228 123 372 1 182 -69 471 -170 700 -69 156 -154 266 -241
311 -62 32 -167 36 -238 10z"/>
</g>
</svg>
