<?xml version="1.0" encoding="UTF-8" standalone="no"?>
<svg
   xmlns:dc="http://purl.org/dc/elements/1.1/"
   xmlns:cc="http://creativecommons.org/ns#"
   xmlns:rdf="http://www.w3.org/1999/02/22-rdf-syntax-ns#"
   xmlns:svg="http://www.w3.org/2000/svg"
   xmlns="http://www.w3.org/2000/svg"
   xmlns:sodipodi="http://sodipodi.sourceforge.net/DTD/sodipodi-0.dtd"
   xmlns:inkscape="http://www.inkscape.org/namespaces/inkscape"
   width="499.2597"
   height="130.005"
   id="svg3473"
   version="1.1"
   inkscape:version="0.91 r13725"
   sodipodi:docname="logo.svg">
  <defs
     id="defs3475" />
  <sodipodi:namedview
     id="base"
     pagecolor="#ffffff"
     bordercolor="#666666"
     borderopacity="1.0"
     inkscape:pageopacity="0.0"
     inkscape:pageshadow="2"
     inkscape:zoom="2.8284271"
     inkscape:cx="253.12984"
     inkscape:cy="-15.482675"
     inkscape:document-units="px"
     inkscape:current-layer="layer1"
     showgrid="false"
     inkscape:window-width="1920"
     inkscape:window-height="1017"
     inkscape:window-x="-8"
     inkscape:window-y="-8"
     inkscape:window-maximized="1"
     fit-margin-top="0"
     fit-margin-left="0"
     fit-margin-right="0"
     fit-margin-bottom="0" />
  <metadata
     id="metadata3478">
    <rdf:RDF>
      <cc:Work
         rdf:about="">
        <dc:format>image/svg+xml</dc:format>
        <dc:type
           rdf:resource="http://purl.org/dc/dcmitype/StillImage" />
        <dc:title />
      </cc:Work>
    </rdf:RDF>
  </metadata>
  <g
     inkscape:label="Layer 1"
     inkscape:groupmode="layer"
     id="layer1"
     transform="translate(-145.11137,-13.979635)">
    <path
       style="fill-opacity:1;stroke:none"
       d="m 394.89504,63.571251 -0.20595,0 0,80.407349 249.68198,0 z"
       id="path4185"
       inkscape:connector-curvature="0"
       sodipodi:nodetypes="ccccc" />
    <path
       style="fill:#ffffff;stroke:none"
       d="m 394.83411,63.564424 235.01849,80.420216 -14.09834,0 z"
       id="path4187"
       inkscape:connector-curvature="0"
       sodipodi:nodetypes="cccc" />
    <path
       inkscape:connector-curvature="0"
       id="path4189"
       d="m 394.77168,63.571251 0.0217,0 0,80.407349 -249.68198,0 z"
       style="fill-opacity:1;stroke:none"
       sodipodi:nodetypes="ccccc" />
    <path
       style="fill:#ffffff;fill-rule:evenodd;stroke:none;stroke-width:1px;stroke-linecap:butt;stroke-linejoin:miter;stroke-opacity:1"
       d="m 388.89343,144.09446 6.07604,-80.465877 6.07604,80.465877"
       id="path3422"
       inkscape:connector-curvature="0"
       sodipodi:nodetypes="ccc" />
    <path
       inkscape:connector-curvature="0"
       id="path4191"
       d="m 394.78653,63.564424 -235.15671,80.420216 14.09835,0 z"
       style="fill:#ffffff;stroke:none"
       sodipodi:nodetypes="cccc" />
    <g
       id="g4531"
       transform="matrix(0.60748272,0,0,0.60748272,97.201139,-286.17571)">
      <g
         id="g4533"
         transform="matrix(-0.95264255,-0.30409237,-0.30409237,0.95264255,1167.1425,170.74824)">
        <path
           id="path4535"
           d="m 528.25,558.34375 -8.5,116.78125 c -2.97319,1.16498 -5.0625,4.04156 -5.0625,7.4375 l 0,4.21875 c 0,4.432 3.61437,7.36056 8,8 0,0 18.38204,4.40625 45.03125,4.40625 30.70702,0 45.03125,-4.40625 45.03125,-4.40625 4.432,0 8,-3.568 8,-8 l 0,-4.21875 c 0,-3.72729 -2.57843,-7.27727 -6,-7.9375 l -1.375,-29.875 c 8.27804,0.0125 20.19642,-3.69197 22.34375,-4.1875 2.32143,-0.53572 18.20535,-8.19197 12.3125,-47.65625 C 642.73122,557.4121 615.83883,576.20031 610.4375,580.375 l -1,-22.03125 -81.1875,0 z m 101.28125,28.84375 c 1.39132,0.007 2.42339,0.45294 2.96875,1.25 1.16072,1.69643 5.53125,3.74554 5.53125,23.03125 0,20.73203 -23.01661,19.65595 -25.28125,19.5 l -1.4375,-31.65625 c 7.4603,-8.70194 14.30634,-12.14511 18.21875,-12.125 z"
           style="fill-opacity:1;stroke:#ffffff;stroke-width:3;stroke-miterlimit:3.9000001;stroke-opacity:1;stroke-dasharray:none"
           inkscape:connector-curvature="0" />
        <rect
           transform="matrix(0.99802088,0.06288341,-0.05410211,0.99853541,0,0)"
           rx="5.993197"
           y="537.47705"
           x="564.22601"
           height="100.86889"
           width="16.396366"
           id="rect4537"
           style="fill:none;stroke:#ffffff;stroke-width:2.00003862;stroke-miterlimit:4;stroke-opacity:1;stroke-dasharray:none" />
        <rect
           style="fill:none;stroke:#ffffff;stroke-width:2.00003862;stroke-miterlimit:4;stroke-opacity:1;stroke-dasharray:none"
           id="rect4539"
           width="16.396366"
           height="100.86889"
           x="-566.57648"
           y="608.68945"
           rx="5.993197"
           transform="matrix(-0.99802088,0.06288341,0.05410211,0.99853541,0,0)" />
        <rect
           transform="matrix(-0.99999768,-0.00215243,-0.00177117,0.99999843,0,0)"
           rx="5.9843988"
           y="571.38885"
           x="-575.76837"
           height="103.01584"
           width="16.372297"
           id="rect4541"
           style="fill:none;stroke:#ffffff;stroke-width:2.01972747;stroke-miterlimit:4;stroke-opacity:1;stroke-dasharray:none" />
        <path
           sodipodi:nodetypes="cc"
           inkscape:connector-curvature="0"
           id="path4543"
           d="m 521.60714,681.29075 c 0,0 42.32143,11.96428 92.14286,0"
           style="fill:none;stroke:#ffffff;stroke-width:3;stroke-linecap:round;stroke-linejoin:miter;stroke-miterlimit:3.9000001;stroke-opacity:1;stroke-dasharray:none" />
        <path
           sodipodi:nodetypes="cscc"
           inkscape:connector-curvature="0"
           id="path4545"
           d="m 614.90387,631.07086 c 0,0 -5.30557,-2.30855 -5.92713,3.64551 -0.39616,3.79494 0.182,7.45673 0.182,7.45673 0,0 1.04051,3.02655 4.36463,2.58773"
           style="fill:none;stroke:#ffffff;stroke-width:2.91753674;stroke-linecap:round;stroke-linejoin:miter;stroke-miterlimit:4;stroke-opacity:1;stroke-dasharray:none" />
        <path
           style="fill:none;stroke:#ffffff;stroke-width:2.91753674;stroke-linecap:round;stroke-linejoin:miter;stroke-miterlimit:4;stroke-opacity:1;stroke-dasharray:none"
           d="m 614.90387,631.07086 c 0,0 -5.30557,-2.30855 -5.92713,3.64551 -0.39616,3.79494 0.182,7.45673 0.182,7.45673 0,0 1.04051,3.02655 4.36463,2.58773"
           id="path4547"
           inkscape:connector-curvature="0"
           sodipodi:nodetypes="cscc" />
        <path
           sodipodi:nodetypes="cssc"
           inkscape:connector-curvature="0"
           id="path4549"
           d="m 610.62064,580.40449 c 0,0 -3.47413,1.8945 -4.36587,3.88121 -1.17369,2.61486 -2.78431,12.92328 0.84543,16.67309 1.51077,1.56075 4.58964,-1.95475 4.58964,-1.95475"
           style="fill:none;stroke:#ffffff;stroke-width:3.0131855;stroke-linecap:round;stroke-linejoin:miter;stroke-miterlimit:4;stroke-opacity:1;stroke-dasharray:none" />
        <path
           sodipodi:nodetypes="cscscscscscscc"
           inkscape:connector-curvature="0"
           id="path4551"
           d="m 583.29705,576.47602 c 0,0 5.56452,5.2863 11.12905,5.2863 5.56452,0 11.12904,-3.33871 11.12904,-3.33871 0,0 5.50173,-3.55837 4.72985,-15.02422 -0.11235,-1.66886 6.66056,-7.37418 6.95565,-11.40727 0,0 2.30162,-28.57799 -24.90243,-15.37079 -1.39031,0.67498 -2.65594,-8.558 -16.03395,-9.04984 0,0 -10.36404,-0.13304 -15.24701,8.65637 -0.49185,0.88531 -1.18042,-3.63962 -12.09925,-3.3445 0,0 -15.22218,2.88677 -12.88618,15.34537 0.29511,1.57388 -10.32863,-4.13144 -16.72254,7.77106 0,0 -5.50859,11.11557 2.7543,17.4111 8.26291,6.29554 18.29642,0.19674 18.29642,0.19674 0,0 14.18231,10.75355 42.89705,2.86839 z"
           style="fill:#ffffff;stroke-width:2.75429893;stroke-linecap:butt;stroke-linejoin:miter;stroke-miterlimit:4;stroke-opacity:1;stroke-dasharray:none" />
      </g>
      <g
         transform="matrix(0.97202207,-0.23488954,0.23488954,0.97202207,-153.52168,121.01384)"
         id="g4553">
        <path
           inkscape:connector-curvature="0"
           style="fill-opacity:1;stroke:#ffffff;stroke-width:3;stroke-miterlimit:3.9000001;stroke-opacity:1;stroke-dasharray:none"
           d="m 528.25,558.34375 -8.5,116.78125 c -2.97319,1.16498 -5.0625,4.04156 -5.0625,7.4375 l 0,4.21875 c 0,4.432 3.61437,7.36056 8,8 0,0 18.38204,4.40625 45.03125,4.40625 30.70702,0 45.03125,-4.40625 45.03125,-4.40625 4.432,0 8,-3.568 8,-8 l 0,-4.21875 c 0,-3.72729 -2.57843,-7.27727 -6,-7.9375 l -1.375,-29.875 c 8.27804,0.0125 20.19642,-3.69197 22.34375,-4.1875 2.32143,-0.53572 18.20535,-8.19197 12.3125,-47.65625 C 642.73122,557.4121 615.83883,576.20031 610.4375,580.375 l -1,-22.03125 -81.1875,0 z m 101.28125,28.84375 c 1.39132,0.007 2.42339,0.45294 2.96875,1.25 1.16072,1.69643 5.53125,3.74554 5.53125,23.03125 0,20.73203 -23.01661,19.65595 -25.28125,19.5 l -1.4375,-31.65625 c 7.4603,-8.70194 14.30634,-12.14511 18.21875,-12.125 z"
           id="path4555" />
        <rect
           style="fill:none;stroke:#ffffff;stroke-width:2.00003862;stroke-miterlimit:4;stroke-opacity:1;stroke-dasharray:none"
           id="rect4557"
           width="16.396366"
           height="100.86889"
           x="564.22601"
           y="537.47705"
           rx="5.993197"
           transform="matrix(0.99802088,0.06288341,-0.05410211,0.99853541,0,0)" />
        <rect
           transform="matrix(-0.99802088,0.06288341,0.05410211,0.99853541,0,0)"
           rx="5.993197"
           y="608.68945"
           x="-566.57648"
           height="100.86889"
           width="16.396366"
           id="rect4559"
           style="fill:none;stroke:#ffffff;stroke-width:2.00003862;stroke-miterlimit:4;stroke-opacity:1;stroke-dasharray:none" />
        <rect
           style="fill:none;stroke:#ffffff;stroke-width:2.01972747;stroke-miterlimit:4;stroke-opacity:1;stroke-dasharray:none"
           id="rect4561"
           width="16.372297"
           height="103.01584"
           x="-575.76837"
           y="571.38885"
           rx="5.9843988"
           transform="matrix(-0.99999768,-0.00215243,-0.00177117,0.99999843,0,0)" />
        <path
           style="fill:none;stroke:#ffffff;stroke-width:3;stroke-linecap:round;stroke-linejoin:miter;stroke-miterlimit:3.9000001;stroke-opacity:1;stroke-dasharray:none"
           d="m 521.60714,681.29075 c 0,0 42.32143,11.96428 92.14286,0"
           id="path4563"
           inkscape:connector-curvature="0"
           sodipodi:nodetypes="cc" />
        <path
           style="fill:none;stroke:#ffffff;stroke-width:2.91753674;stroke-linecap:round;stroke-linejoin:miter;stroke-miterlimit:4;stroke-opacity:1;stroke-dasharray:none"
           d="m 614.90387,631.07086 c 0,0 -5.30557,-2.30855 -5.92713,3.64551 -0.39616,3.79494 0.182,7.45673 0.182,7.45673 0,0 1.04051,3.02655 4.36463,2.58773"
           id="path4565"
           inkscape:connector-curvature="0"
           sodipodi:nodetypes="cscc" />
        <path
           sodipodi:nodetypes="cscc"
           inkscape:connector-curvature="0"
           id="path4567"
           d="m 614.90387,631.07086 c 0,0 -5.30557,-2.30855 -5.92713,3.64551 -0.39616,3.79494 0.182,7.45673 0.182,7.45673 0,0 1.04051,3.02655 4.36463,2.58773"
           style="fill:none;stroke:#ffffff;stroke-width:2.91753674;stroke-linecap:round;stroke-linejoin:miter;stroke-miterlimit:4;stroke-opacity:1;stroke-dasharray:none" />
        <path
           style="fill:none;stroke:#ffffff;stroke-width:3.0131855;stroke-linecap:round;stroke-linejoin:miter;stroke-miterlimit:4;stroke-opacity:1;stroke-dasharray:none"
           d="m 610.62064,580.40449 c 0,0 -3.47413,1.8945 -4.36587,3.88121 -1.17369,2.61486 -2.78431,12.92328 0.84543,16.67309 1.51077,1.56075 4.58964,-1.95475 4.58964,-1.95475"
           id="path4569"
           inkscape:connector-curvature="0"
           sodipodi:nodetypes="cssc" />
        <path
           style="fill:#ffffff;stroke-width:2.75429893;stroke-linecap:butt;stroke-linejoin:miter;stroke-miterlimit:4;stroke-opacity:1;stroke-dasharray:none"
           d="m 583.29705,576.47602 c 0,0 5.56452,5.2863 11.12905,5.2863 5.56452,0 11.12904,-3.33871 11.12904,-3.33871 0,0 5.50173,-3.55837 4.72985,-15.02422 -0.11235,-1.66886 6.66056,-7.37418 6.95565,-11.40727 0,0 2.30162,-28.57799 -24.90243,-15.37079 -1.39031,0.67498 -2.65594,-8.558 -16.03395,-9.04984 0,0 -10.36404,-0.13304 -15.24701,8.65637 -0.49185,0.88531 -1.18042,-3.63962 -12.09925,-3.3445 0,0 -15.22218,2.88677 -12.88618,15.34537 0.29511,1.57388 -10.32863,-4.13144 -16.72254,7.77106 0,0 -5.50859,11.11557 2.7543,17.4111 8.26291,6.29554 18.29642,0.19674 18.29642,0.19674 0,0 14.18231,10.75355 42.89705,2.86839 z"
           id="path4571"
           inkscape:connector-curvature="0"
           sodipodi:nodetypes="cscscscscscscc" />
      </g>
    </g>
    <rect
       style="stroke:none"
       id="rect3434"
       width="17.05895"
       height="2.7400389"
       x="387.29544"
       y="141.42137" />
    <rect
       style="stroke:none"
       id="rect3436"
       width="12.374369"
       height="9.1923885"
       x="389.59354"
       y="116.40748" />
    <rect
       style="stroke:none"
       id="rect3438"
       width="9.5459414"
       height="5.6568542"
       x="390.5658"
       y="102.70728" />
    <rect
       style="stroke:none"
       id="rect3440"
       width="8.8388348"
       height="4.0658641"
       x="390.83096"
       y="93.603287" />
    <rect
       style="stroke:none"
       id="rect3442"
       width="6.7175145"
       height="2.8284271"
       x="391.53809"
       y="86.885773" />
    <rect
       style="stroke:none"
       id="rect3444"
       width="7.601398"
       height="1.7677668"
       x="391.44968"
       y="81.891823" />
    <rect
       style="stroke:none"
       id="rect3446"
       width="7.2478447"
       height="1.4584078"
       x="391.62646"
       y="78.267906" />
    <rect
       style="stroke:none"
       id="rect3448"
       width="4.7287765"
       height="1.1048543"
       x="392.55453"
       y="75.306892" />
    <rect
       style="stroke:none"
       id="rect3450"
       width="3.8448932"
       height="0.92807764"
       x="393.04068"
       y="72.522659" />
    <rect
       style="stroke:none"
       id="rect3452"
       width="3.2261746"
       height="0.79549515"
       x="393.30585"
       y="70.224564" />
    <rect
       style="stroke:none"
       id="rect3454"
       width="2.2980971"
       height="0.70710677"
       x="393.92456"
       y="67.882271" />
    <rect
       style="stroke:none"
       id="rect3456"
       width="1.8119612"
       height="0.83968931"
       x="394.01294"
       y="65.937729" />
    <rect
       style="stroke:none"
       id="rect3458"
       width="1.1932427"
       height="0.53033006"
       x="394.27811"
       y="64.523514" />
  </g>
</svg>
