<?xml version="1.0" encoding="UTF-8" standalone="no"?>
<svg
   xmlns:dc="http://purl.org/dc/elements/1.1/"
   xmlns:cc="http://creativecommons.org/ns#"
   xmlns:rdf="http://www.w3.org/1999/02/22-rdf-syntax-ns#"
   xmlns:svg="http://www.w3.org/2000/svg"
   xmlns="http://www.w3.org/2000/svg"
   xmlns:sodipodi="http://sodipodi.sourceforge.net/DTD/sodipodi-0.dtd"
   xmlns:inkscape="http://www.inkscape.org/namespaces/inkscape"
   width="112.79929"
   height="84.97348"
   id="svg3473"
   version="1.1"
   inkscape:version="0.91 r13725"
   sodipodi:docname="small_logo.svg">
  <defs
     id="defs3475">
    <clipPath
       clipPathUnits="userSpaceOnUse"
       id="clipPath4569">
      <ellipse
         style="fill:none;stroke:#000000;stroke-width:2.87994337;stroke-miterlimit:4;stroke-dasharray:none"
         id="ellipse4571"
         cx="395.61136"
         cy="72.984642"
         rx="92.810028"
         ry="69.560028" />
    </clipPath>
  </defs>
  <sodipodi:namedview
     id="base"
     pagecolor="#ffffff"
     bordercolor="#666666"
     borderopacity="1.0"
     inkscape:pageopacity="0.0"
     inkscape:pageshadow="2"
     inkscape:zoom="4"
     inkscape:cx="-17.126436"
     inkscape:cy="34.385804"
     inkscape:document-units="px"
     inkscape:current-layer="layer1"
     showgrid="false"
     inkscape:window-width="1920"
     inkscape:window-height="1017"
     inkscape:window-x="-8"
     inkscape:window-y="-8"
     inkscape:window-maximized="1"
     fit-margin-top="0"
     fit-margin-left="0"
     fit-margin-right="0"
     fit-margin-bottom="0" />
  <metadata
     id="metadata3478">
    <rdf:RDF>
      <cc:Work
         rdf:about="">
        <dc:format>image/svg+xml</dc:format>
        <dc:type
           rdf:resource="http://purl.org/dc/dcmitype/StillImage" />
        <dc:title></dc:title>
      </cc:Work>
    </rdf:RDF>
  </metadata>
  <g
     inkscape:label="Layer 1"
     inkscape:groupmode="layer"
     id="layer1"
     transform="translate(-339.21171,-30.497903)">
    <g
       id="g4509"
       clip-path="url(#clipPath4569)"
       transform="matrix(0.59840476,0,0,0.59840476,158.87564,29.310285)">
      <path
         sodipodi:nodetypes="ccccc"
         inkscape:connector-curvature="0"
         id="path4185"
         d="m 394.89504,63.571251 -0.20595,0 0,80.407349 249.68198,0 z"
         style="fill-opacity:1;stroke:none" />
      <path
         sodipodi:nodetypes="cccc"
         inkscape:connector-curvature="0"
         id="path4187"
         d="m 394.83411,63.564424 235.01849,80.420216 -14.09834,0 z"
         style="fill:#ffffff;stroke:none" />
      <path
         sodipodi:nodetypes="ccccc"
         style="fill-opacity:1;stroke:none"
         d="m 394.77168,63.571251 0.0217,0 0,80.407349 -249.68198,0 z"
         id="path4189"
         inkscape:connector-curvature="0" />
      <path
         sodipodi:nodetypes="ccc"
         inkscape:connector-curvature="0"
         id="path3422"
         d="m 388.89343,144.09446 6.07604,-80.465877 6.07604,80.465877"
         style="fill:#ffffff;fill-rule:evenodd;stroke:none;stroke-width:1px;stroke-linecap:butt;stroke-linejoin:miter;stroke-opacity:1" />
      <path
         sodipodi:nodetypes="cccc"
         style="fill:#ffffff;stroke:none"
         d="m 394.78653,63.564424 -235.15671,80.420216 14.09835,0 z"
         id="path4191"
         inkscape:connector-curvature="0" />
      <g
         transform="matrix(0.60748272,0,0,0.60748272,97.201139,-286.17571)"
         id="g4531">
        <g
           transform="matrix(-0.95264255,-0.30409237,-0.30409237,0.95264255,1167.1425,170.74824)"
           id="g4533">
          <path
             inkscape:connector-curvature="0"
             style="fill-opacity:1;stroke:#ffffff;stroke-width:3;stroke-miterlimit:3.9000001;stroke-dasharray:none;stroke-opacity:1"
             d="m 528.25,558.34375 -8.5,116.78125 c -2.97319,1.16498 -5.0625,4.04156 -5.0625,7.4375 l 0,4.21875 c 0,4.432 3.61437,7.36056 8,8 0,0 18.38204,4.40625 45.03125,4.40625 30.70702,0 45.03125,-4.40625 45.03125,-4.40625 4.432,0 8,-3.568 8,-8 l 0,-4.21875 c 0,-3.72729 -2.57843,-7.27727 -6,-7.9375 l -1.375,-29.875 c 8.27804,0.0125 20.19642,-3.69197 22.34375,-4.1875 2.32143,-0.53572 18.20535,-8.19197 12.3125,-47.65625 C 642.73122,557.4121 615.83883,576.20031 610.4375,580.375 l -1,-22.03125 -81.1875,0 z m 101.28125,28.84375 c 1.39132,0.007 2.42339,0.45294 2.96875,1.25 1.16072,1.69643 5.53125,3.74554 5.53125,23.03125 0,20.73203 -23.01661,19.65595 -25.28125,19.5 l -1.4375,-31.65625 c 7.4603,-8.70194 14.30634,-12.14511 18.21875,-12.125 z"
             id="path4535" />
          <path
             transform="matrix(0.99802088,0.06288341,-0.05410211,0.99853541,0,0)"
             style="fill:none;stroke:#ffffff;stroke-width:2.00003862;stroke-miterlimit:4;stroke-dasharray:none;stroke-opacity:1"
             d="m 570.21921,537.47705 4.40997,0 c 3.32023,0 5.9932,2.67297 5.9932,5.9932 l 0,88.88249 c 0,3.32023 -2.67297,5.9932 -5.9932,5.9932 l -4.40997,0 c -3.32023,0 -5.9932,-2.67297 -5.9932,-5.9932 l 0,-88.88249 c 0,-3.32023 2.67297,-5.9932 5.9932,-5.9932 z"
             id="rect4537"
             inkscape:connector-curvature="0" />
          <path
             transform="matrix(-0.99802088,0.06288341,0.05410211,0.99853541,0,0)"
             style="fill:none;stroke:#ffffff;stroke-width:2.00003862;stroke-miterlimit:4;stroke-dasharray:none;stroke-opacity:1"
             d="m -560.58328,608.68945 4.40997,0 c 3.32023,0 5.9932,2.67297 5.9932,5.9932 l 0,88.8825 c 0,3.32023 -2.67297,5.99319 -5.9932,5.99319 l -4.40997,0 c -3.32023,0 -5.9932,-2.67296 -5.9932,-5.99319 l 0,-88.8825 c 0,-3.32023 2.67297,-5.9932 5.9932,-5.9932 z"
             id="rect4539"
             inkscape:connector-curvature="0" />
          <path
             transform="matrix(-0.99999768,-0.00215243,-0.00177117,0.99999843,0,0)"
             style="fill:none;stroke:#ffffff;stroke-width:2.01972747;stroke-miterlimit:4;stroke-dasharray:none;stroke-opacity:1"
             d="m -569.78397,571.38885 4.4035,0 c 3.31535,0 5.9844,2.66905 5.9844,5.9844 l 0,91.04704 c 0,3.31536 -2.66905,5.9844 -5.9844,5.9844 l -4.4035,0 c -3.31536,0 -5.9844,-2.66904 -5.9844,-5.9844 l 0,-91.04704 c 0,-3.31535 2.66904,-5.9844 5.9844,-5.9844 z"
             id="rect4541"
             inkscape:connector-curvature="0" />
          <path
             style="fill:none;stroke:#ffffff;stroke-width:3;stroke-linecap:round;stroke-linejoin:miter;stroke-miterlimit:3.9000001;stroke-dasharray:none;stroke-opacity:1"
             d="m 521.60714,681.29075 c 0,0 42.32143,11.96428 92.14286,0"
             id="path4543"
             inkscape:connector-curvature="0"
             sodipodi:nodetypes="cc" />
          <path
             style="fill:none;stroke:#ffffff;stroke-width:2.91753674;stroke-linecap:round;stroke-linejoin:miter;stroke-miterlimit:4;stroke-dasharray:none;stroke-opacity:1"
             d="m 614.90387,631.07086 c 0,0 -5.30557,-2.30855 -5.92713,3.64551 -0.39616,3.79494 0.182,7.45673 0.182,7.45673 0,0 1.04051,3.02655 4.36463,2.58773"
             id="path4545"
             inkscape:connector-curvature="0"
             sodipodi:nodetypes="cscc" />
          <path
             sodipodi:nodetypes="cscc"
             inkscape:connector-curvature="0"
             id="path4547"
             d="m 614.90387,631.07086 c 0,0 -5.30557,-2.30855 -5.92713,3.64551 -0.39616,3.79494 0.182,7.45673 0.182,7.45673 0,0 1.04051,3.02655 4.36463,2.58773"
             style="fill:none;stroke:#ffffff;stroke-width:2.91753674;stroke-linecap:round;stroke-linejoin:miter;stroke-miterlimit:4;stroke-dasharray:none;stroke-opacity:1" />
          <path
             style="fill:none;stroke:#ffffff;stroke-width:3.0131855;stroke-linecap:round;stroke-linejoin:miter;stroke-miterlimit:4;stroke-dasharray:none;stroke-opacity:1"
             d="m 610.62064,580.40449 c 0,0 -3.47413,1.8945 -4.36587,3.88121 -1.17369,2.61486 -2.78431,12.92328 0.84543,16.67309 1.51077,1.56075 4.58964,-1.95475 4.58964,-1.95475"
             id="path4549"
             inkscape:connector-curvature="0"
             sodipodi:nodetypes="cssc" />
          <path
             style="fill:#ffffff;stroke-width:2.75429893;stroke-linecap:butt;stroke-linejoin:miter;stroke-miterlimit:4;stroke-dasharray:none;stroke-opacity:1"
             d="m 583.29705,576.47602 c 0,0 5.56452,5.2863 11.12905,5.2863 5.56452,0 11.12904,-3.33871 11.12904,-3.33871 0,0 5.50173,-3.55837 4.72985,-15.02422 -0.11235,-1.66886 6.66056,-7.37418 6.95565,-11.40727 0,0 2.30162,-28.57799 -24.90243,-15.37079 -1.39031,0.67498 -2.65594,-8.558 -16.03395,-9.04984 0,0 -10.36404,-0.13304 -15.24701,8.65637 -0.49185,0.88531 -1.18042,-3.63962 -12.09925,-3.3445 0,0 -15.22218,2.88677 -12.88618,15.34537 0.29511,1.57388 -10.32863,-4.13144 -16.72254,7.77106 0,0 -5.50859,11.11557 2.7543,17.4111 8.26291,6.29554 18.29642,0.19674 18.29642,0.19674 0,0 14.18231,10.75355 42.89705,2.86839 z"
             id="path4551"
             inkscape:connector-curvature="0"
             sodipodi:nodetypes="cscscscscscscc" />
        </g>
        <g
           id="g4553"
           transform="matrix(0.97202207,-0.23488954,0.23488954,0.97202207,-153.52168,121.01384)">
          <path
             id="path4555"
             d="m 528.25,558.34375 -8.5,116.78125 c -2.97319,1.16498 -5.0625,4.04156 -5.0625,7.4375 l 0,4.21875 c 0,4.432 3.61437,7.36056 8,8 0,0 18.38204,4.40625 45.03125,4.40625 30.70702,0 45.03125,-4.40625 45.03125,-4.40625 4.432,0 8,-3.568 8,-8 l 0,-4.21875 c 0,-3.72729 -2.57843,-7.27727 -6,-7.9375 l -1.375,-29.875 c 8.27804,0.0125 20.19642,-3.69197 22.34375,-4.1875 2.32143,-0.53572 18.20535,-8.19197 12.3125,-47.65625 C 642.73122,557.4121 615.83883,576.20031 610.4375,580.375 l -1,-22.03125 -81.1875,0 z m 101.28125,28.84375 c 1.39132,0.007 2.42339,0.45294 2.96875,1.25 1.16072,1.69643 5.53125,3.74554 5.53125,23.03125 0,20.73203 -23.01661,19.65595 -25.28125,19.5 l -1.4375,-31.65625 c 7.4603,-8.70194 14.30634,-12.14511 18.21875,-12.125 z"
             style="fill-opacity:1;stroke:#ffffff;stroke-width:3;stroke-miterlimit:3.9000001;stroke-dasharray:none;stroke-opacity:1"
             inkscape:connector-curvature="0" />
          <path
             transform="matrix(0.99802088,0.06288341,-0.05410211,0.99853541,0,0)"
             style="fill:none;stroke:#ffffff;stroke-width:2.00003862;stroke-miterlimit:4;stroke-dasharray:none;stroke-opacity:1"
             d="m 570.21921,537.47705 4.40997,0 c 3.32023,0 5.9932,2.67297 5.9932,5.9932 l 0,88.88249 c 0,3.32023 -2.67297,5.9932 -5.9932,5.9932 l -4.40997,0 c -3.32023,0 -5.9932,-2.67297 -5.9932,-5.9932 l 0,-88.88249 c 0,-3.32023 2.67297,-5.9932 5.9932,-5.9932 z"
             id="rect4557"
             inkscape:connector-curvature="0" />
          <path
             transform="matrix(-0.99802088,0.06288341,0.05410211,0.99853541,0,0)"
             style="fill:none;stroke:#ffffff;stroke-width:2.00003862;stroke-miterlimit:4;stroke-dasharray:none;stroke-opacity:1"
             d="m -560.58328,608.68945 4.40997,0 c 3.32023,0 5.9932,2.67297 5.9932,5.9932 l 0,88.8825 c 0,3.32023 -2.67297,5.99319 -5.9932,5.99319 l -4.40997,0 c -3.32023,0 -5.9932,-2.67296 -5.9932,-5.99319 l 0,-88.8825 c 0,-3.32023 2.67297,-5.9932 5.9932,-5.9932 z"
             id="rect4559"
             inkscape:connector-curvature="0" />
          <path
             transform="matrix(-0.99999768,-0.00215243,-0.00177117,0.99999843,0,0)"
             style="fill:none;stroke:#ffffff;stroke-width:2.01972747;stroke-miterlimit:4;stroke-dasharray:none;stroke-opacity:1"
             d="m -569.78397,571.38885 4.4035,0 c 3.31535,0 5.9844,2.66905 5.9844,5.9844 l 0,91.04704 c 0,3.31536 -2.66905,5.9844 -5.9844,5.9844 l -4.4035,0 c -3.31536,0 -5.9844,-2.66904 -5.9844,-5.9844 l 0,-91.04704 c 0,-3.31535 2.66904,-5.9844 5.9844,-5.9844 z"
             id="rect4561"
             inkscape:connector-curvature="0" />
          <path
             sodipodi:nodetypes="cc"
             inkscape:connector-curvature="0"
             id="path4563"
             d="m 521.60714,681.29075 c 0,0 42.32143,11.96428 92.14286,0"
             style="fill:none;stroke:#ffffff;stroke-width:3;stroke-linecap:round;stroke-linejoin:miter;stroke-miterlimit:3.9000001;stroke-dasharray:none;stroke-opacity:1" />
          <path
             sodipodi:nodetypes="cscc"
             inkscape:connector-curvature="0"
             id="path4565"
             d="m 614.90387,631.07086 c 0,0 -5.30557,-2.30855 -5.92713,3.64551 -0.39616,3.79494 0.182,7.45673 0.182,7.45673 0,0 1.04051,3.02655 4.36463,2.58773"
             style="fill:none;stroke:#ffffff;stroke-width:2.91753674;stroke-linecap:round;stroke-linejoin:miter;stroke-miterlimit:4;stroke-dasharray:none;stroke-opacity:1" />
          <path
             style="fill:none;stroke:#ffffff;stroke-width:2.91753674;stroke-linecap:round;stroke-linejoin:miter;stroke-miterlimit:4;stroke-dasharray:none;stroke-opacity:1"
             d="m 614.90387,631.07086 c 0,0 -5.30557,-2.30855 -5.92713,3.64551 -0.39616,3.79494 0.182,7.45673 0.182,7.45673 0,0 1.04051,3.02655 4.36463,2.58773"
             id="path4567"
             inkscape:connector-curvature="0"
             sodipodi:nodetypes="cscc" />
          <path
             sodipodi:nodetypes="cssc"
             inkscape:connector-curvature="0"
             id="path4569"
             d="m 610.62064,580.40449 c 0,0 -3.47413,1.8945 -4.36587,3.88121 -1.17369,2.61486 -2.78431,12.92328 0.84543,16.67309 1.51077,1.56075 4.58964,-1.95475 4.58964,-1.95475"
             style="fill:none;stroke:#ffffff;stroke-width:3.0131855;stroke-linecap:round;stroke-linejoin:miter;stroke-miterlimit:4;stroke-dasharray:none;stroke-opacity:1" />
          <path
             sodipodi:nodetypes="cscscscscscscc"
             inkscape:connector-curvature="0"
             id="path4571"
             d="m 583.29705,576.47602 c 0,0 5.56452,5.2863 11.12905,5.2863 5.56452,0 11.12904,-3.33871 11.12904,-3.33871 0,0 5.50173,-3.55837 4.72985,-15.02422 -0.11235,-1.66886 6.66056,-7.37418 6.95565,-11.40727 0,0 2.30162,-28.57799 -24.90243,-15.37079 -1.39031,0.67498 -2.65594,-8.558 -16.03395,-9.04984 0,0 -10.36404,-0.13304 -15.24701,8.65637 -0.49185,0.88531 -1.18042,-3.63962 -12.09925,-3.3445 0,0 -15.22218,2.88677 -12.88618,15.34537 0.29511,1.57388 -10.32863,-4.13144 -16.72254,7.77106 0,0 -5.50859,11.11557 2.7543,17.4111 8.26291,6.29554 18.29642,0.19674 18.29642,0.19674 0,0 14.18231,10.75355 42.89705,2.86839 z"
             style="fill:#ffffff;stroke-width:2.75429893;stroke-linecap:butt;stroke-linejoin:miter;stroke-miterlimit:4;stroke-dasharray:none;stroke-opacity:1" />
        </g>
      </g>
      <path
         style="stroke:none"
         d="m 387.29544,141.42137 17.05895,0 0,2.74004 -17.05895,0 z"
         id="rect3434"
         inkscape:connector-curvature="0" />
      <path
         style="stroke:none"
         d="m 389.59354,116.40748 12.37437,0 0,9.19239 -12.37437,0 z"
         id="rect3436"
         inkscape:connector-curvature="0" />
      <path
         style="stroke:none"
         d="m 390.5658,102.70728 9.54594,0 0,5.65686 -9.54594,0 z"
         id="rect3438"
         inkscape:connector-curvature="0" />
      <path
         style="stroke:none"
         d="m 390.83096,93.603287 8.83884,0 0,4.065864 -8.83884,0 z"
         id="rect3440"
         inkscape:connector-curvature="0" />
      <path
         style="stroke:none"
         d="m 391.53809,86.885773 6.71751,0 0,2.828427 -6.71751,0 z"
         id="rect3442"
         inkscape:connector-curvature="0" />
      <path
         style="stroke:none"
         d="m 391.44968,81.891823 7.60139,0 0,1.767767 -7.60139,0 z"
         id="rect3444"
         inkscape:connector-curvature="0" />
      <path
         style="stroke:none"
         d="m 391.62646,78.267906 7.24785,0 0,1.458408 -7.24785,0 z"
         id="rect3446"
         inkscape:connector-curvature="0" />
      <path
         style="stroke:none"
         d="m 392.55453,75.306892 4.72878,0 0,1.104855 -4.72878,0 z"
         id="rect3448"
         inkscape:connector-curvature="0" />
      <path
         style="stroke:none"
         d="m 393.04068,72.522659 3.84489,0 0,0.928078 -3.84489,0 z"
         id="rect3450"
         inkscape:connector-curvature="0" />
      <path
         style="stroke:none"
         d="m 393.30585,70.224564 3.22617,0 0,0.795495 -3.22617,0 z"
         id="rect3452"
         inkscape:connector-curvature="0" />
      <path
         style="stroke:none"
         d="m 393.92456,67.882271 2.2981,0 0,0.707107 -2.2981,0 z"
         id="rect3454"
         inkscape:connector-curvature="0" />
      <path
         style="stroke:none"
         d="m 394.01294,65.937729 1.81196,0 0,0.839689 -1.81196,0 z"
         id="rect3456"
         inkscape:connector-curvature="0" />
      <path
         style="stroke:none"
         d="m 394.27811,64.523514 1.19324,0 0,0.53033 -1.19324,0 z"
         id="rect3458"
         inkscape:connector-curvature="0" />
    </g>
    <ellipse
       ry="41.625053"
       rx="55.53796"
       cy="72.984642"
       cx="395.61136"
       id="ellipse4507"
       style="fill:none;stroke-width:1.72337174;stroke-miterlimit:4;stroke-dasharray:none" />
  </g>
</svg>
