<svg xmlns="http://www.w3.org/2000/svg" width="112.8" height="85"><defs><clipPath id="a"><ellipse cx="395.6" cy="73" fill="none" stroke="#000" stroke-width="2.9" rx="92.8" ry="69.6"/></clipPath></defs><g transform="translate(-339.212 -30.498)"><g clip-path="url(#a)" transform="matrix(.5984 0 0 .5984 158.876 29.31)"><path d="M395 63.6h-.3V144h249.7z"/><path fill="#fff" d="M394.8 63.6l235 80.4h-14z"/><path d="M394.8 63.6V144H145z"/><path fill="#fff" fill-rule="evenodd" d="M389 144l6-80.4 6 80.5"/><path fill="#fff" d="M394.8 63.6L159.6 144h14z"/><path stroke="#fff" stroke-width="1.82244" stroke-miterlimit="3.9" d="M397.4 43l-16.7 69.2c1.5 1.3 2.2 3.3 1.6 5.3l-.8 2.4c-.8 2.5-3.5 3.5-6 3 0 0-11.6-.8-27-5.7-17.8-5.7-25.2-11-25.2-11-2.6-.7-4-3.4-3.2-6l1-2.4c.6-2.3 2.7-3.8 4.8-3.6l6.3-17c-4.6-1.6-11-6-12-6.6-1.3-.7-9-8 1.7-29.8 9.6-19.6 21.7-3.8 24-.3l4.7-12.6 47 15zm-64-2c-.8-.2-1.5 0-2 .2-1 .8-3.8 1.2-7.4 12.4-3.8 12 9.7 15.6 11 16l6.7-18c-2.7-6.6-6-9.8-8.3-10.5z"/><path fill="none" stroke="#fff" stroke-width="2" d="M570.2 537.5h4.4c3.3 0 6 2.7 6 6v89c0 3.2-2.7 5.8-6 5.8h-4.4c-3.3 0-6-2.6-6-6v-88.8c0-3.3 2.7-6 6-6z" transform="matrix(-.5892 -.14797 -.15315 .58786 806.22 -182.45)"/><path fill="none" stroke="#fff" stroke-width="2" d="M-560.6 608.7h4.4c3.3 0 6 2.7 6 6v89c0 3.2-2.7 6-6 6h-4.4c-3.3 0-6-2.8-6-6v-89c0-3.3 2.7-6 6-6z" transform="matrix(.56595 .22076 -.21577 .56787 806.22 -182.45)"/><path fill="none" stroke="#fff" stroke-width="2" d="M-569.8 571.4h4.4c3.3 0 6 2.7 6 6v91c0 3.3-2.7 6-6 6h-4.4c-3.3 0-6-2.7-6-6v-91c0-3.3 2.7-6 6-6z" transform="matrix(.5791 .18348 -.1837 .57904 806.22 -182.45)"/><path fill="none" stroke="#fff" stroke-width="1.82244" stroke-miterlimit="3.9" d="M378.5 115.5s-26.7-1-53.3-17" stroke-linecap="round"/><path fill="none" stroke="#fff" stroke-width="1.761692" d="M333.8 69.2s3.5-.4 2.7 3.2c-.4 2.2-1.4 4.3-1.4 4.3s-1 1.5-3 .6" stroke-linecap="round"/><path fill="none" stroke="#fff" stroke-width="1.761692" d="M333.8 69.2s3.5-.4 2.7 3.2c-.4 2.2-1.4 4.3-1.4 4.3s-1 1.5-3 .6" stroke-linecap="round"/><path fill="none" stroke="#fff" stroke-width="1.82244" d="M345.6 40.6s1.7 1.8 1.8 3c.2 1.8-.7 8-3.5 9.6-1.3.6-2.4-2-2.4-2" stroke-linecap="round"/><path fill="#fff" d="M362.2 43.4s-4.2 2-7.5 1c-3.2-1-5.8-4-5.8-4s-2.6-3 0-9.5c.3-1-2.5-5.6-2-8 0 0 4-17 17.3-4.3.7.6 3-4.5 11-2.3 0 0 6 1.8 7.2 7.8 0 .6 1.3-2 7.6.3 0 0 8.4 4.5 4.7 11.3-.4.8 6.8-.5 8.3 7.6 0 0 1 7.4-5 9.5-5.8 2-10.5-3.3-10.5-3.3s-10.2 3.6-25.3-6.3z"/><path stroke="#fff" stroke-width="1.82244" stroke-miterlimit="3.9" d="M395.5 41.7l11.7 70c-1.6 1.2-2.4 3.2-2 5.2l.7 2.4c.5 2.6 3 4 5.7 3.6 0 0 11.5 0 27.2-3.8 18-4.4 26-9 26-9 2.5-.7 4-3.3 3.5-6l-.6-2.4c-.7-2.2-2.7-4-4.8-3.8l-5-17.5c4.8-1 11.3-5 12.5-5.6 1.3-.8 9.6-7.6.5-30-8.2-20.2-21.4-5.3-24-2l-3.7-13-48 11.7zm64 2.5c.8-.2 1.5 0 2 .4.8.8 3.7 1.4 6.4 12.8 3 12.2-10.8 15-12.2 15L450.4 54c3.2-6.2 6.7-9.2 9-9.8z"/><path fill="none" stroke="#fff" stroke-width="2" d="M570.2 537.5h4.4c3.3 0 6 2.7 6 6v89c0 3.2-2.7 5.8-6 5.8h-4.4c-3.3 0-6-2.6-6-6v-88.8c0-3.3 2.7-6 6-6z" transform="matrix(.5983 -.10528 .11054 .59734 3.94 -212.662)"/><path fill="none" stroke="#fff" stroke-width="2" d="M-560.6 608.7h4.4c3.3 0 6 2.7 6 6v89c0 3.2-2.7 6-6 6h-4.4c-3.3 0-6-2.8-6-6v-89c0-3.3 2.7-6 6-6z" transform="matrix(-.58035 .17954 .17443 .5819 3.94 -212.662)"/><path fill="none" stroke="#fff" stroke-width="2" d="M-569.8 571.4h4.4c3.3 0 6 2.7 6 6v91c0 3.3-2.7 6-6 6h-4.4c-3.3 0-6-2.7-6-6v-91c0-3.3 2.7-6 6-6z" transform="matrix(-.5908 .14142 .14165 .59074 3.94 -212.662)"/><path fill="none" stroke="#fff" stroke-width="1.82244" stroke-miterlimit="3.9" d="M409.2 115.2s26.7 1 54.4-13" stroke-linecap="round"/><path fill="none" stroke="#fff" stroke-width="1.761692" d="M457 72.2s-3.4-.6-3 3c.4 2.3 1.3 4.4 1.3 4.4s1 1.6 3 1" stroke-linecap="round"/><path fill="none" stroke="#fff" stroke-width="1.761692" d="M457 72.2s-3.4-.6-3 3c.4 2.3 1.3 4.4 1.3 4.4s1 1.6 3 1" stroke-linecap="round"/><path fill="none" stroke="#fff" stroke-width="1.82244" d="M447.3 43s-1.8 1.5-2 2.8c-.3 1.8.2 8 3 9.8 1 .7 2.3-1.8 2.3-1.8" stroke-linecap="round"/><path fill="#fff" d="M430.6 44.5s4 2.3 7.4 1.5c3.2-.8 6-3.5 6-3.5s2.8-3 .7-9.6c-.3-1 3-5.4 2.5-7.8 0 0-2.7-17.2-17-5.5-.6.6-2.7-4.7-10.7-3 0 0-6 1.3-7.7 7.2-.2.5-1.3-2-7.7-.3 0 0-8.4 3.8-5.3 11 .4.8-6.7-1-8.8 6.8 0 0-1.7 7.4 4 10 5.8 2.5 11-2.6 11-2.6s9.8 4.3 25.6-4.5z"/><path d="M387.3 141.4h17v2.8h-17zM389.6 116.4H402v9.2h-12.4zM390.6 102.7h9.5v5.7h-9.4zM390.8 93.6h9v4h-9zM391.5 87h6.8v2.7h-6.8zM391.4 82h7.7v1.7h-7.6zM391.6 78.3h7.3v1.4h-7.4zM392.6 75.3h4.7v1h-4.7zM393 72.5h4v1h-4zM393.3 70.2h3.2v.8h-3.2zM394 68h2.2v.6H394zM394 66h1.8v.8H394zM394.3 64.5h1.2v.6h-1.2z"/></g><ellipse cx="395.6" cy="73" fill="none" ry="41.6" rx="55.5"/></g></svg>